<svg width="700" height="226" viewBox="0 0 700 226" fill="none" xmlns="http://www.w3.org/2000/svg">
<path d="M341.614 24.72V27.92C337.987 28.0267 335.214 28.4533 333.294 29.2C331.48 29.84 330.254 31.12 329.614 33.04C328.974 34.8533 328.654 37.7333 328.654 41.68V121.04C328.654 124.88 328.974 127.76 329.614 129.68C330.254 131.6 331.48 132.88 333.294 133.52C335.214 134.053 337.987 134.32 341.614 134.32H353.294C360.014 134.32 365.08 133.36 368.494 131.44C372.014 129.52 374.52 126.373 376.014 122C377.614 117.627 378.787 111.76 379.534 104.4H383.214C382.894 107.707 382.734 112.08 382.734 117.52C382.734 119.547 382.787 122.48 382.894 126.32C383.107 130.053 383.427 133.947 383.854 138C378.414 137.787 372.28 137.68 365.454 137.68C358.627 137.573 352.547 137.52 347.214 137.52C344.014 137.52 339.747 137.52 334.414 137.52C329.187 137.52 323.587 137.573 317.614 137.68C311.64 137.68 306.04 137.787 300.814 138V134.8C304.44 134.587 307.16 134.16 308.974 133.52C310.894 132.88 312.174 131.6 312.814 129.68C313.454 127.76 313.774 124.88 313.774 121.04V41.68C313.774 37.7333 313.454 34.8533 312.814 33.04C312.174 31.12 310.894 29.84 308.974 29.2C307.16 28.4533 304.44 28.0267 300.814 27.92V24.72C303.054 24.8267 305.987 24.9333 309.614 25.04C313.24 25.1467 317.134 25.2 321.294 25.2C325.027 25.2 328.707 25.1467 332.334 25.04C336.067 24.9333 339.16 24.8267 341.614 24.72ZM431.996 53.36C438.823 53.36 444.956 54.8533 450.396 57.84C455.836 60.8267 460.156 65.52 463.356 71.92C466.663 78.32 468.316 86.64 468.316 96.88C468.316 107.12 466.663 115.44 463.356 121.84C460.156 128.133 455.836 132.773 450.396 135.76C444.956 138.747 438.823 140.24 431.996 140.24C425.276 140.24 419.143 138.747 413.596 135.76C408.156 132.773 403.783 128.133 400.476 121.84C397.276 115.44 395.676 107.12 395.676 96.88C395.676 86.64 397.276 78.32 400.476 71.92C403.783 65.52 408.156 60.8267 413.596 57.84C419.143 54.8533 425.276 53.36 431.996 53.36ZM431.996 56.56C425.916 56.56 420.903 59.7067 416.956 66C413.116 72.2933 411.196 82.5867 411.196 96.88C411.196 111.173 413.116 121.467 416.956 127.76C420.903 133.947 425.916 137.04 431.996 137.04C438.076 137.04 443.036 133.947 446.876 127.76C450.823 121.467 452.796 111.173 452.796 96.88C452.796 82.5867 450.823 72.2933 446.876 66C443.036 59.7067 438.076 56.56 431.996 56.56ZM506.213 29.04V55.76H529.893V58.96H506.213V120.88C506.213 125.893 507.119 129.413 508.933 131.44C510.746 133.467 513.253 134.48 516.453 134.48C519.653 134.48 522.426 133.2 524.773 130.64C527.119 127.973 529.146 123.547 530.853 117.36L534.053 118.16C532.986 124.347 530.853 129.573 527.653 133.84C524.559 138.107 519.759 140.24 513.253 140.24C509.626 140.24 506.639 139.76 504.293 138.8C501.946 137.947 499.866 136.667 498.053 134.96C495.706 132.507 494.053 129.573 493.093 126.16C492.239 122.747 491.813 118.213 491.813 112.56V58.96H476.453V55.76H491.813V31.28C494.479 31.1733 497.039 30.96 499.493 30.64C501.946 30.32 504.186 29.7867 506.213 29.04ZM609.655 53.84V120.72C609.655 125.52 610.508 129.093 612.215 131.44C614.028 133.68 617.228 134.8 621.815 134.8V138.16C618.508 137.84 615.202 137.68 611.895 137.68C608.802 137.68 605.815 137.84 602.935 138.16C600.162 138.48 597.602 139.067 595.255 139.92V121.04C592.588 127.973 588.802 132.933 583.895 135.92C579.095 138.8 574.135 140.24 569.015 140.24C565.282 140.24 562.028 139.707 559.255 138.64C556.482 137.573 554.188 136.08 552.375 134.16C550.348 132.027 548.962 129.253 548.215 125.84C547.468 122.427 547.095 118.213 547.095 113.2V73.04C547.095 68.24 546.242 64.72 544.535 62.48C542.828 60.1333 539.628 58.96 534.935 58.96V55.6C538.348 55.92 541.655 56.08 544.855 56.08C547.948 56.08 550.882 55.92 553.655 55.6C556.535 55.1733 559.148 54.5867 561.495 53.84V116.72C561.495 120.027 561.708 123.067 562.135 125.84C562.562 128.613 563.628 130.853 565.335 132.56C567.042 134.267 569.815 135.12 573.655 135.12C579.948 135.12 585.122 132.347 589.175 126.8C593.228 121.147 595.255 114.267 595.255 106.16V73.04C595.255 68.24 594.402 64.72 592.695 62.48C590.988 60.1333 587.788 58.96 583.095 58.96V55.6C586.508 55.92 589.815 56.08 593.015 56.08C596.108 56.08 599.042 55.92 601.815 55.6C604.695 55.1733 607.308 54.5867 609.655 53.84ZM658.624 53.36C662.89 53.36 666.517 54.0533 669.504 55.44C672.49 56.8267 674.677 58.1067 676.064 59.28C679.584 62.16 681.717 60.24 682.464 53.52H686.144C685.93 56.5067 685.77 60.08 685.664 64.24C685.557 68.2933 685.504 73.7867 685.504 80.72H681.824C681.184 76.7733 680.064 72.9333 678.464 69.2C676.97 65.4667 674.73 62.4267 671.744 60.08C668.757 57.6267 664.864 56.4 660.064 56.4C656.33 56.4 653.184 57.4667 650.624 59.6C648.17 61.6267 646.944 64.6667 646.944 68.72C646.944 71.92 647.904 74.6933 649.824 77.04C651.744 79.28 654.25 81.4133 657.344 83.44C660.437 85.36 663.797 87.4933 667.424 89.84C673.504 93.7867 678.677 97.7867 682.944 101.84C687.21 105.893 689.344 111.227 689.344 117.84C689.344 122.747 688.064 126.853 685.504 130.16C682.944 133.467 679.584 135.973 675.424 137.68C671.37 139.387 666.89 140.24 661.984 140.24C659.637 140.24 657.397 140.027 655.264 139.6C653.237 139.28 651.264 138.747 649.344 138C648.277 137.467 647.157 136.827 645.984 136.08C644.917 135.333 643.85 134.533 642.784 133.68C641.717 132.827 640.757 132.88 639.904 133.84C639.05 134.693 638.41 136.453 637.984 139.12H634.304C634.517 135.707 634.677 131.547 634.784 126.64C634.89 121.733 634.944 115.227 634.944 107.12H638.624C639.37 113.093 640.437 118.32 641.824 122.8C643.21 127.28 645.397 130.8 648.384 133.36C651.37 135.813 655.53 137.04 660.864 137.04C664.064 137.04 667.21 135.92 670.304 133.68C673.504 131.44 675.104 127.493 675.104 121.84C675.104 117.147 673.397 113.307 669.984 110.32C666.57 107.333 662.25 104.187 657.024 100.88C653.184 98.4267 649.557 95.9733 646.144 93.52C642.837 91.0667 640.117 88.2933 637.984 85.2C635.957 82.1067 634.944 78.3733 634.944 74C634.944 69.2 636.01 65.3067 638.144 62.32C640.384 59.2267 643.317 56.9867 646.944 55.6C650.57 54.1067 654.464 53.36 658.624 53.36Z" fill="#2B2B45"/>
<path d="M61.1687 76.8145H56.7754C55.8523 76.8145 54.967 77.1811 54.3143 77.8339C53.6616 78.4866 53.2949 79.3718 53.2949 80.2949C53.2949 81.218 53.6616 82.1033 54.3143 82.756C54.967 83.4087 55.8523 83.7754 56.7754 83.7754H61.1687C62.0918 83.7754 62.9771 83.4087 63.6298 82.756C64.2825 82.1033 64.6492 81.218 64.6492 80.2949C64.6492 79.3718 64.2825 78.4866 63.6298 77.8339C62.9771 77.1811 62.0918 76.8145 61.1687 76.8145V76.8145Z" fill="#2B2B45"/>
<path d="M42.6785 76.8145H38.2852C37.3621 76.8145 36.4768 77.1811 35.8241 77.8339C35.1714 78.4866 34.8047 79.3718 34.8047 80.2949C34.8047 81.218 35.1714 82.1033 35.8241 82.756C36.4768 83.4087 37.3621 83.7754 38.2852 83.7754H42.6785C43.6016 83.7754 44.4869 83.4087 45.1396 82.756C45.7923 82.1033 46.159 81.218 46.159 80.2949C46.159 79.3718 45.7923 78.4866 45.1396 77.8339C44.4869 77.1811 43.6016 76.8145 42.6785 76.8145V76.8145Z" fill="#2B2B45"/>
<path d="M49.7271 83.8633C49.2699 83.863 48.8172 83.9529 48.3948 84.1277C47.9724 84.3025 47.5887 84.5589 47.2654 84.8821C46.9422 85.2054 46.6858 85.5891 46.511 86.0115C46.3362 86.4339 46.2463 86.8866 46.2466 87.3438V91.7371C46.2466 92.6602 46.6133 93.5455 47.266 94.1982C47.9187 94.8509 48.804 95.2176 49.7271 95.2176C50.6501 95.2176 51.5354 94.8509 52.1881 94.1982C52.8408 93.5455 53.2075 92.6602 53.2075 91.7371V87.3438C53.2078 86.8866 53.1179 86.4339 52.9431 86.0115C52.7683 85.5891 52.5119 85.2054 52.1887 84.8821C51.8655 84.5589 51.4817 84.3025 51.0593 84.1277C50.6369 83.9529 50.1842 83.863 49.7271 83.8633V83.8633Z" fill="#2B2B45"/>
<path d="M49.7271 65.375C49.2699 65.3747 48.8172 65.4646 48.3948 65.6394C47.9724 65.8142 47.5887 66.0706 47.2654 66.3938C46.9422 66.7171 46.6858 67.1009 46.511 67.5232C46.3362 67.9456 46.2463 68.3983 46.2466 68.8555V73.2488C46.2466 74.1719 46.6133 75.0572 47.266 75.7099C47.9187 76.3626 48.804 76.7293 49.7271 76.7293C50.6501 76.7293 51.5354 76.3626 52.1881 75.7099C52.8408 75.0572 53.2075 74.1719 53.2075 73.2488V68.8555C53.2078 68.3983 53.1179 67.9456 52.9431 67.5232C52.7683 67.1009 52.5119 66.7171 52.1887 66.3938C51.8655 66.0706 51.4817 65.8142 51.0593 65.6394C50.6369 65.4646 50.1842 65.3747 49.7271 65.375V65.375Z" fill="#2B2B45"/>
<path d="M215.94 76.8145H211.547C210.624 76.8145 209.739 77.1811 209.086 77.8339C208.433 78.4866 208.066 79.3718 208.066 80.2949C208.066 81.218 208.433 82.1033 209.086 82.756C209.739 83.4087 210.624 83.7754 211.547 83.7754H215.94C216.863 83.7754 217.749 83.4087 218.401 82.756C219.054 82.1033 219.421 81.218 219.421 80.2949C219.421 79.3718 219.054 78.4866 218.401 77.8339C217.749 77.1811 216.863 76.8145 215.94 76.8145Z" fill="#2B2B45"/>
<path d="M197.45 76.8145H193.057C192.134 76.8145 191.249 77.1811 190.596 77.8339C189.943 78.4866 189.577 79.3718 189.577 80.2949C189.577 81.218 189.943 82.1033 190.596 82.756C191.249 83.4087 192.134 83.7754 193.057 83.7754H197.45C198.374 83.7754 199.259 83.4087 199.912 82.756C200.564 82.1033 200.931 81.218 200.931 80.2949C200.931 79.3718 200.564 78.4866 199.912 77.8339C199.259 77.1811 198.374 76.8145 197.45 76.8145V76.8145Z" fill="#2B2B45"/>
<path d="M204.499 83.8633C204.041 83.863 203.589 83.9529 203.166 84.1277C202.744 84.3025 202.36 84.5589 202.037 84.8821C201.714 85.2054 201.457 85.5891 201.282 86.0115C201.108 86.4339 201.018 86.8866 201.018 87.3438V91.7371C201.018 92.6602 201.385 93.5455 202.037 94.1982C202.69 94.8509 203.575 95.2176 204.499 95.2176C205.422 95.2176 206.307 94.8509 206.96 94.1982C207.612 93.5455 207.979 92.6602 207.979 91.7371V87.3438C207.979 86.8866 207.889 86.4339 207.715 86.0115C207.54 85.5891 207.283 85.2054 206.96 84.8821C206.637 84.5589 206.253 84.3025 205.831 84.1277C205.408 83.9529 204.956 83.863 204.499 83.8633Z" fill="#2B2B45"/>
<path d="M204.499 65.375C204.041 65.3747 203.589 65.4646 203.166 65.6394C202.744 65.8142 202.36 66.0706 202.037 66.3938C201.714 66.7171 201.457 67.1009 201.282 67.5232C201.108 67.9456 201.018 68.3983 201.018 68.8555V73.2488C201.018 74.1719 201.385 75.0572 202.037 75.7099C202.69 76.3626 203.575 76.7293 204.499 76.7293C205.422 76.7293 206.307 76.3626 206.96 75.7099C207.612 75.0572 207.979 74.1719 207.979 73.2488V68.8555C207.979 68.3983 207.889 67.9456 207.715 67.5232C207.54 67.1009 207.283 66.7171 206.96 66.3938C206.637 66.0706 206.253 65.8142 205.831 65.6394C205.408 65.4646 204.956 65.3747 204.499 65.375V65.375Z" fill="#2B2B45"/>
<path d="M254.572 54.7237C254.571 53.8007 254.204 52.9158 253.552 52.2632C252.899 51.6106 252.014 51.2437 251.091 51.2432H246.616C235.304 51.2427 224.045 52.8048 213.16 55.8851C212.335 44.6064 209.953 33.4962 206.082 22.8704L204.552 18.664C204.236 17.7967 203.588 17.0905 202.751 16.7005C201.914 16.3104 200.957 16.2684 200.089 16.5836L195.885 18.115C182.006 23.1436 169.155 30.6484 157.956 40.2648C151.848 26.8169 143.364 14.5811 132.912 4.14543L129.748 0.981178C129.083 0.35115 128.202 0 127.286 0C126.37 0 125.489 0.35115 124.824 0.981178L121.661 4.14543C111.209 14.5811 102.724 26.8168 96.6159 40.2648C85.4167 30.6477 72.5655 23.1422 58.6867 18.1131L54.4823 16.5817C53.6146 16.2659 52.657 16.3076 51.8201 16.6978C50.9832 17.0879 50.3355 17.7944 50.0194 18.662L48.49 22.8684C44.6192 33.4942 42.2372 44.6045 41.4117 55.8832C30.5264 52.8035 19.2679 51.2421 7.95538 51.2432H3.48049C2.55757 51.2437 1.6726 51.6106 1.02 52.2632C0.367401 52.9158 0.00054002 53.8007 1.30905e-05 54.7237V59.1985C-0.0146704 90.9631 12.3238 121.488 34.407 144.321C22.8599 149.205 12.3704 156.284 3.52026 165.164L1.02029 167.674C0.696884 167.997 0.440315 168.38 0.265261 168.802C0.0902062 169.225 0.000101661 169.677 0.000101661 170.134C0.000101661 170.591 0.0902062 171.044 0.265261 171.466C0.440315 171.888 0.696884 172.271 1.02029 172.594L3.52026 175.088C16.2106 187.86 32.1943 196.863 49.6945 201.095C67.1948 205.328 85.5259 204.624 102.65 199.062C107.92 208.036 114.307 216.305 121.659 223.67C122.398 224.409 123.275 224.995 124.24 225.394C125.206 225.794 126.24 226 127.285 226C128.33 226 129.364 225.794 130.329 225.394C131.295 224.995 132.172 224.409 132.91 223.67C140.264 216.306 146.652 208.037 151.92 199.062C169.044 204.624 187.376 205.328 204.876 201.096C222.377 196.863 238.361 187.861 251.051 175.088L253.551 172.586C253.875 172.263 254.131 171.88 254.306 171.458C254.482 171.036 254.572 170.583 254.572 170.126C254.572 169.669 254.482 169.217 254.306 168.795C254.131 168.372 253.875 167.989 253.551 167.666L251.051 165.164C242.202 156.28 231.713 149.198 220.165 144.311C242.245 121.481 254.584 90.9597 254.572 59.1985V54.7237ZM198.266 24.6484L199.2 24.3083L199.54 25.2431C203.375 35.7895 205.652 46.8381 206.303 58.041C192.467 62.8591 179.608 70.1215 168.338 79.4827C167.311 68.3776 164.769 57.4655 160.78 47.0507C171.731 37.2597 184.455 29.6555 198.266 24.6484ZM126.584 9.06781L127.286 8.36773L127.99 9.07178C138.887 19.9394 147.505 32.8729 153.34 47.1143C153.376 47.2245 153.418 47.3327 153.465 47.4385C159.065 61.2761 161.933 76.0665 161.914 90.9942C161.955 106.212 158.978 121.287 153.154 135.347C147.331 149.407 138.777 162.172 127.988 172.905L127.286 173.607L126.582 172.905C110.496 156.797 99.5031 136.313 94.972 114.004C90.4409 91.6948 92.5716 68.5457 101.099 47.4385C101.146 47.3327 101.188 47.2245 101.224 47.1143C107.06 32.8704 115.682 19.9352 126.584 9.06781ZM55.0313 25.2431L55.3713 24.3083L56.3061 24.6484C70.1142 29.6562 82.8363 37.2604 93.7858 47.0507C89.7972 57.4655 87.2544 68.3776 86.2282 79.4827C74.9575 70.1213 62.0979 62.8589 48.2612 58.041C48.9139 46.8377 51.1945 35.7891 55.0313 25.2431ZM6.96096 58.2041H7.95538C36.7324 58.1815 64.4799 68.9099 85.7569 88.2854C85.737 89.1863 85.6893 90.0753 85.6893 90.9862C85.6121 122.196 97.5058 152.247 118.921 174.951C88.9013 173.913 60.4557 161.268 39.5727 139.677C18.6897 118.087 6.99865 89.2359 6.96096 59.1985V58.2041ZM8.44265 170.176L8.40287 170.136L8.44265 170.096C17.3583 161.153 28.0569 154.187 39.8425 149.651C62.3078 170.341 91.701 181.878 122.242 181.994C116.388 185.833 110.11 188.985 103.533 191.385C103.174 191.448 102.827 191.57 102.507 191.745C102.48 191.76 102.454 191.778 102.429 191.799C86.3175 197.422 68.944 198.374 52.314 194.546C35.6839 190.719 20.4751 182.267 8.44265 170.166V170.176ZM127.988 218.747C127.908 218.859 127.802 218.95 127.68 219.013C127.558 219.076 127.422 219.108 127.285 219.108C127.147 219.108 127.012 219.076 126.89 219.013C126.767 218.95 126.662 218.859 126.582 218.747C119.945 212.106 114.14 204.683 109.295 196.641C115.61 194.062 121.639 190.832 127.286 187.005C132.932 190.833 138.962 194.062 145.277 196.641C140.431 204.684 134.626 212.107 127.988 218.747ZM246.169 170.126L246.129 170.166C234.097 182.266 218.889 190.718 202.26 194.545C185.63 198.373 168.258 197.421 152.146 191.799C152.119 191.783 152.097 191.761 152.069 191.747C151.749 191.574 151.404 191.452 151.047 191.387C144.467 188.986 138.186 185.834 132.33 181.994C162.871 181.878 192.264 170.34 214.729 149.649C226.514 154.182 237.213 161.145 246.129 170.084L246.169 170.126ZM247.611 59.1985C247.573 89.2359 235.881 118.087 214.998 139.677C194.114 161.267 165.668 173.912 135.649 174.949C157.066 152.246 168.961 122.195 168.882 90.9842C168.882 90.0793 168.835 89.1843 168.815 88.2834C190.092 68.9086 217.84 58.181 246.616 58.2041H247.611V59.1985Z" fill="#2B2B45" fill-opacity="0.12"/>
<path d="M190.379 166.061C190.182 165.83 189.938 165.643 189.663 165.514C189.388 165.385 189.088 165.317 188.785 165.314H184.171V158.093C184.171 157.526 183.947 156.982 183.548 156.582C183.149 156.181 182.608 155.956 182.045 155.956H169.287V125.085H172.264C172.734 125.074 173.188 124.906 173.553 124.608C173.919 124.311 174.176 123.9 174.284 123.439L178.728 102.075C178.794 101.773 178.79 101.46 178.716 101.16C178.643 100.86 178.501 100.581 178.302 100.345C178.107 100.109 177.864 99.9182 177.588 99.7854C177.313 99.6527 177.013 99.5811 176.708 99.5754H157.699C157.394 99.5811 157.093 99.6527 156.818 99.7854C156.543 99.9182 156.3 100.109 156.104 100.345C155.914 100.585 155.777 100.864 155.703 101.163C155.63 101.462 155.622 101.773 155.679 102.075L160.123 123.439C160.235 123.917 160.508 124.342 160.895 124.642C161.282 124.941 161.761 125.098 162.249 125.085H165.247V156.02H152.49C151.926 156.02 151.385 156.245 150.986 156.646C150.587 157.047 150.363 157.59 150.363 158.157V165.378H145.622C145.322 165.384 145.027 165.454 144.756 165.582C144.484 165.711 144.243 165.896 144.048 166.126C143.857 166.362 143.718 166.637 143.641 166.932C143.564 167.226 143.551 167.534 143.602 167.835L151.852 213.149C152.192 215.159 153.236 216.981 154.795 218.286C156.355 219.59 158.328 220.292 160.357 220.263H174.241C176.249 220.261 178.191 219.546 179.724 218.244C181.257 216.942 182.282 215.137 182.619 213.149L190.911 167.771C190.951 167.464 190.924 167.152 190.832 166.857C190.74 166.562 190.586 166.291 190.379 166.061ZM163.823 120.94L160.229 103.613H174.177L170.584 120.94H163.823ZM154.382 160.165H180.046V165.314H154.382V160.165ZM178.472 212.401C178.305 213.421 177.788 214.35 177.012 215.028C176.236 215.707 175.248 216.092 174.22 216.118H160.357C159.328 216.092 158.341 215.707 157.565 215.028C156.789 214.35 156.272 213.421 156.104 212.401L148.258 169.458H186.531L178.472 212.401Z" fill="#911439"/>
<path d="M130.27 146.792H122.467V139.079H128.846C129.142 139.081 129.435 139.017 129.703 138.892C129.971 138.766 130.209 138.582 130.398 138.353C130.585 138.13 130.725 137.871 130.81 137.592C130.894 137.313 130.92 137.019 130.887 136.729L124.508 89.4497C124.324 87.8071 123.538 86.2919 122.305 85.1983C121.071 84.1047 119.477 83.5108 117.832 83.5318H94.5493C92.921 83.5354 91.3502 84.1367 90.1324 85.2227C88.9146 86.3087 88.1337 87.8043 87.9366 89.4284L81.5579 136.751C81.5248 137.04 81.551 137.334 81.6352 137.613C81.7193 137.892 81.8594 138.151 82.0469 138.374C82.2414 138.597 82.4798 138.776 82.747 138.901C83.0142 139.026 83.3044 139.094 83.5991 139.101H89.9778V146.792H82.0895C81.0514 146.797 80.0257 147.018 79.0764 147.44C78.1271 147.862 77.2746 148.476 76.5722 149.244C75.8698 150.012 75.3325 150.917 74.9941 151.903C74.6556 152.889 74.5232 153.935 74.6051 154.974L79.5592 213.363C79.7095 215.25 80.5645 217.01 81.9527 218.29C83.3409 219.57 85.1596 220.275 87.0436 220.264H125.316C127.185 220.254 128.983 219.539 130.353 218.261C131.723 216.984 132.566 215.236 132.715 213.363L137.67 154.974C137.751 153.935 137.619 152.889 137.281 151.903C136.942 150.917 136.405 150.012 135.702 149.244C135 148.476 134.148 147.862 133.198 147.44C132.249 147.018 131.223 146.797 130.185 146.792H130.27ZM85.938 134.956L92.0403 89.9411C92.1037 89.3179 92.3958 88.7407 92.8596 88.322C93.3234 87.9034 93.9258 87.6732 94.5493 87.6765H117.832C118.453 87.6826 119.05 87.916 119.512 88.3329C119.974 88.7498 120.268 89.3215 120.341 89.9411L126.464 134.913L85.938 134.956ZM118.363 139.079V146.77H94.0177V139.079H118.363ZM128.697 213C128.632 213.854 128.247 214.651 127.619 215.23C126.992 215.809 126.168 216.127 125.316 216.119H87.0436C86.1915 216.127 85.3682 215.809 84.7405 215.23C84.1128 214.651 83.7276 213.854 83.6629 213L78.7087 154.633C78.6641 154.166 78.7166 153.695 78.8631 153.25C79.0095 152.805 79.2466 152.395 79.5592 152.047C79.8703 151.694 80.2535 151.412 80.6827 151.22C81.112 151.028 81.5772 150.932 82.0469 150.936H130.27C130.74 150.935 131.206 151.031 131.637 151.22C132.067 151.41 132.454 151.687 132.773 152.035C133.091 152.383 133.333 152.793 133.484 153.241C133.636 153.688 133.692 154.162 133.651 154.633L128.697 213Z" fill="#911439"/>
<path d="M118.512 167.943H93.8476C91.8983 167.818 89.9782 168.467 88.4994 169.749C87.0206 171.031 86.101 172.845 85.938 174.801C85.9276 174.936 85.9276 175.071 85.938 175.207L89.2975 191.978C89.2961 193.829 90.0085 195.608 91.2851 196.943C92.5617 198.277 94.3032 199.063 96.144 199.135H116.216C118.057 199.063 119.798 198.277 121.075 196.943C122.351 195.608 123.064 193.829 123.062 191.978L126.443 175.207C126.454 175.071 126.454 174.936 126.443 174.801C126.285 172.839 125.364 171.019 123.88 169.735C122.395 168.451 120.466 167.807 118.512 167.943ZM118.98 191.443C118.969 191.579 118.969 191.714 118.98 191.849C119.045 192.642 118.795 193.428 118.285 194.037C117.775 194.645 117.047 195.026 116.258 195.097H96.144C95.3577 195.021 94.6325 194.638 94.1237 194.031C93.6149 193.424 93.3631 192.641 93.4224 191.849C93.4328 191.714 93.4328 191.579 93.4224 191.443L90.0629 174.737C90.1905 173.326 91.8915 172.194 93.8902 172.194H118.555C120.553 172.194 122.254 173.326 122.382 174.737L118.98 191.443Z" fill="#911439"/>
<path d="M328.156 208H324.387L310.07 186.086V208H306.301V179.562H310.07L324.426 201.574V179.562H328.156V208ZM356.871 200.578H344.957L342.281 208H338.414L349.273 179.562H352.555L363.434 208H359.586L356.871 200.578ZM346.09 197.492H355.758L350.914 184.191L346.09 197.492ZM377.285 208H373.535V179.562H377.285V208ZM393.93 204.934H407.406V208H390.16V179.562H393.93V204.934ZM454.523 198.977C454.172 201.984 453.059 204.309 451.184 205.949C449.322 207.577 446.841 208.391 443.742 208.391C440.383 208.391 437.688 207.186 435.656 204.777C433.638 202.368 432.629 199.146 432.629 195.109V192.375C432.629 189.732 433.098 187.408 434.035 185.402C434.986 183.397 436.327 181.861 438.059 180.793C439.79 179.712 441.796 179.172 444.074 179.172C447.095 179.172 449.517 180.018 451.34 181.711C453.163 183.391 454.224 185.721 454.523 188.703H450.754C450.428 186.438 449.719 184.797 448.625 183.781C447.544 182.766 446.027 182.258 444.074 182.258C441.678 182.258 439.797 183.143 438.43 184.914C437.076 186.685 436.398 189.204 436.398 192.473V195.227C436.398 198.312 437.043 200.767 438.332 202.59C439.621 204.413 441.424 205.324 443.742 205.324C445.826 205.324 447.421 204.855 448.527 203.918C449.647 202.967 450.389 201.32 450.754 198.977H454.523ZM481.363 200.578H469.449L466.773 208H462.906L473.766 179.562H477.047L487.926 208H484.078L481.363 200.578ZM470.582 197.492H480.25L475.406 184.191L470.582 197.492ZM508.184 196.496H501.504V208H497.734V179.562H507.148C510.352 179.562 512.812 180.292 514.531 181.75C516.263 183.208 517.129 185.331 517.129 188.117C517.129 189.888 516.647 191.431 515.684 192.746C514.733 194.061 513.405 195.044 511.699 195.695L518.379 207.766V208H514.355L508.184 196.496ZM501.504 193.43H507.266C509.128 193.43 510.605 192.948 511.699 191.984C512.806 191.021 513.359 189.732 513.359 188.117C513.359 186.359 512.832 185.012 511.777 184.074C510.736 183.137 509.225 182.661 507.246 182.648H501.504V193.43ZM544.477 194.855H532.152V204.934H546.469V208H528.402V179.562H546.273V182.648H532.152V191.789H544.477V194.855ZM577.082 208H573.332V179.562H577.082V208ZM611.812 208H608.043L593.727 186.086V208H589.957V179.562H593.727L608.082 201.574V179.562H611.812V208ZM662.25 208H658.48L644.164 186.086V208H640.395V179.562H644.164L658.52 201.574V179.562H662.25V208ZM683.035 193.84L690.457 179.562H694.715L684.91 197.395V208H681.16V197.395L671.355 179.562H675.652L683.035 193.84Z" fill="#2B2B45" fill-opacity="0.46"/>
</svg>
